<svg xmlns="http://www.w3.org/2000/svg"  viewBox="0 0 30 30" width="30px" height="30px"><path fill="#bae0bd" d="M7.5,28.5v-7.924l-0.751,0.437C6.193,21.336,5.605,21.5,5,21.5c-1.93,0-3.5-1.57-3.5-3.5 s1.57-3.5,3.5-3.5c0.605,0,1.193,0.164,1.749,0.487L7.5,15.424V7.5h7.925l-0.438-0.751C14.664,6.194,14.5,5.605,14.5,5 c0-1.93,1.57-3.5,3.5-3.5s3.5,1.57,3.5,3.5c0,0.605-0.164,1.194-0.486,1.749L20.575,7.5H28.5v6.268 C28.016,13.59,27.514,13.5,27,13.5c-2.481,0-4.5,2.019-4.5,4.5s2.019,4.5,4.5,4.5c0.514,0,1.016-0.09,1.5-0.268V28.5H7.5z"/><path fill="#5e9c76" d="M18,2c1.654,0,3,1.346,3,3c0,0.516-0.141,1.019-0.419,1.497L19.706,8h1.739H28v5.104 C27.672,13.035,27.339,13,27,13c-2.757,0-5,2.243-5,5s2.243,5,5,5c0.339,0,0.672-0.035,1-0.104V28H8v-6.555v-1.739l-1.503,0.875 C6.019,20.859,5.516,21,5,21c-1.654,0-3-1.346-3-3s1.346-3,3-3c0.516,0,1.019,0.141,1.497,0.419L8,16.294v-1.739V8h6.555h1.739 l-0.875-1.503C15.141,6.019,15,5.516,15,5C15,3.346,16.346,2,18,2 M18,1c-2.209,0-4,1.791-4,4c0,0.732,0.211,1.41,0.555,2H7v7.555 C6.41,14.211,5.732,14,5,14c-2.209,0-4,1.791-4,4c0,2.209,1.791,4,4,4c0.732,0,1.41-0.211,2-0.555V29h22v-7.555 C28.41,21.789,27.732,22,27,22c-2.209,0-4-1.791-4-4c0-2.209,1.791-4,4-4c0.732,0,1.41,0.211,2,0.555V7h-7.555 C21.789,6.41,22,5.732,22,5C22,2.791,20.209,1,18,1L18,1z"/></svg>